<?xml version="1.0"?>

<svg version="1.0" xmlns="http://www.w3.org/2000/svg" width="2500.000000pt" height="1349.000000pt" viewBox="0 0 2500.000000 1349.000000" preserveAspectRatio="xMidYMid meet">

<g transform="translate(0.000000,1349.000000) scale(0.100000,-0.100000)" fill="#000000" stroke="none">
<path d="M11795 12619 c-168 -12 -467 -54 -642 -89 -1839 -374 -3289 -1720&#xA;-3803 -3531 -97 -344 -159 -720 -175 -1069 -3 -74 -8 -172 -11 -217 l-6 -82&#xA;-81 -27 c-121 -40 -375 -135 -517 -194 -69 -29 -149 -61 -178 -73 -86 -33 -53&#xA;-29 64 7 355 112 815 228 1249 315 1202 242 2336 297 3287 161 263 -38 423&#xA;-71 838 -175 991 -248 1539 -364 2075 -440 1295 -183 2389 -65 3559 384 209&#xA;81 597 248 526 227 -8 -3 -130 -43 -270 -90 -937 -312 -1719 -447 -2500 -433&#xA;-523 9 -974 70 -1620 219 -224 51 -1230 304 -1236 311 -6 6 89 19 326 47 96&#xA;12 267 32 380 46 113 13 286 33 385 44 327 37 492 83 750 209 276 135 479 285&#xA;740 546 212 211 437 496 559 706 l27 47 -128 7 c-118 7 -648 0 -788 -10 -33&#xA;-3 -130 -9 -215 -15 -1025 -71 -2450 -327 -3955 -710 -590 -150 -1187 -319&#xA;-1275 -362 -80 -38 -241 -194 -289 -280 l-32 -56 -72 -12 c-134 -21 -441 -81&#xA;-616 -121 -96 -21 -175 -39 -176 -39 -4 0 27 234 45 340 26 158 89 414 145&#xA;595 337 1083 1098 2033 2083 2599 556 319 1140 510 1799 588 153 18 243 22&#xA;488 22 292 0 370 -5 630 -40 664 -91 1342 -348 1905 -722 627 -417 1155 -995&#xA;1500 -1642 264 -496 434 -1018 510 -1563 22 -162 25 -110 5 84 -67 634 -224&#xA;1184 -495 1734 -248 502 -538 905 -944 1310 -791 790 -1795 1279 -2916 1419&#xA;-274 35 -654 45 -935 25z"></path>
<path d="M12700 9655 c-195 -90 -466 -214 -602 -277 -135 -62 -246 -114 -245&#xA;-115 1 0 94 18 207 42 469 100 1030 198 1320 231 80 9 147 17 148 19 2 2 -11&#xA;11 -30 21 -18 9 -124 68 -235 130 -111 63 -203 114 -205 113 -2 0 -163 -74&#xA;-358 -164z"></path>
<path d="M9330 7199 c-1054 -62 -2211 -310 -3255 -700 -241 -90 -608 -239&#xA;-602 -245 2 -2 50 12 107 31 888 287 2101 524 3100 604 912 74 1728 39 2477&#xA;-104 99 -19 423 -95 720 -169 1277 -317 1914 -444 2608 -520 926 -101 1747&#xA;-58 2595 135 538 122 1171 340 1720 593 56 25 64 35 13 15 -75 -30 -431 -147&#xA;-623 -205 -1389 -419 -2478 -500 -3740 -278 -374 65 -612 119 -1425 324 -1487&#xA;373 -1836 446 -2410 500 -313 29 -948 39 -1285 19z"></path>
<path d="M23565 5598 c-120 -39 -206 -50 -1000 -128 -671 -65 -864 -74 -963&#xA;-45 -29 9 -56 14 -61 11 -17 -11 -101 -382 -101 -446 0 -55 28 -33 72 56 27&#xA;55 56 98 82 120 37 32 122 66 196 78 29 5 609 66 626 66 3 0 3 -530 1 -1177&#xA;-3 -1013 -6 -1189 -19 -1254 -28 -134 -54 -161 -172 -175 -46 -6 -56 -10 -56&#xA;-25 0 -11 7 -19 18 -20 92 -4 843 0 851 6 6 3 11 12 11 20 0 13 -11 15 -152&#xA;30 -104 11 -149 62 -169 191 -7 45 -13 489 -16 1250 l-5 1182 99 6 c54 4 114&#xA;9 133 11 352 41 550 19 612 -67 11 -17 25 -63 33 -109 13 -86 19 -99 37 -81&#xA;12 12 33 460 23 500 -6 26 -3 26 -80 0z"></path>
<path d="M24000 5598 c-126 -64 -148 -244 -41 -341 78 -71 207 -72 288 -2 110&#xA;94 91 275 -36 342 -60 31 -149 32 -211 1z m180 -33 c49 -25 90 -95 90 -153 0&#xA;-69 -54 -140 -123 -162 -99 -31 -207 56 -207 166 0 124 130 205 240 149z"></path>
<path d="M24028 5514 c-5 -4 -8 -52 -8 -106 0 -98 0 -98 25 -98 23 0 25 4 25&#xA;40 0 35 3 40 24 40 27 0 41 -14 50 -52 5 -22 12 -28 32 -28 24 0 25 2 19 33&#xA;-4 17 -14 40 -22 49 -13 15 -12 19 7 38 21 21 20 51 -1 75 -11 12 -141 20&#xA;-151 9z m106 -40 c9 -8 16 -17 16 -19 0 -13 -35 -35 -56 -35 -21 0 -24 5 -24&#xA;35 0 30 3 35 24 35 14 0 32 -7 40 -16z"></path>
<path d="M1275 5560 c-247 -39 -411 -181 -476 -415 -29 -102 -31 -302 -5 -409&#xA;62 -258 183 -425 565 -786 333 -314 423 -462 425 -700 1 -208 -99 -379 -269&#xA;-460 -163 -76 -378 -64 -537 31 -137 81 -218 234 -218 412 0 68 -10 93 -33 84&#xA;-18 -7 -25 -76 -33 -342 -5 -154 -4 -217 5 -233 28 -52 217 -117 391 -133 206&#xA;-20 377 8 535 85 265 130 418 411 402 736 -7 134 -31 228 -86 340 -84 167&#xA;-197 299 -476 554 -305 279 -419 424 -454 576 -15 65 -13 206 3 268 45 166&#xA;186 272 362 272 235 0 453 -122 502 -281 11 -36 23 -88 27 -115 10 -70 15 -84&#xA;30 -84 21 0 23 21 30 271 l6 227 -46 6 c-25 4 -78 18 -117 32 -162 55 -404 84&#xA;-533 64z"></path>
<path d="M2461 5411 c-30 -19 -2 -38 79 -54 102 -20 150 -50 181 -114 l24 -48&#xA;6 -810 c6 -786 9 -845 40 -1005 64 -330 248 -575 517 -690 219 -93 543 -114&#xA;787 -50 110 29 265 108 358 183 181 146 278 328 332 627 18 101 21 189 29&#xA;1135 4 479 5 495 54 547 26 28 92 48 158 48 28 0 35 4 32 17 -5 24 -41 30&#xA;-195 32 -72 0 -191 7 -265 15 -268 29 -297 30 -304 11 -9 -23 7 -31 77 -39 99&#xA;-10 162 -45 197 -111 21 -40 30 -310 31 -895 1 -622 -15 -816 -85 -1012 -107&#xA;-301 -395 -483 -730 -464 -124 8 -197 26 -289 71 -233 114 -376 348 -425 695&#xA;-16 112 -25 1349 -12 1553 11 166 24 200 82 229 22 12 58 18 98 18 55 0 62 2&#xA;62 20 0 26 -11 28 -225 40 -155 9 -477 40 -570 55 -16 2 -36 1 -44 -4z"></path>
<path d="M20940 5353 c-19 -8 -59 -19 -90 -24 -85 -14 -648 -58 -895 -70 -358&#xA;-17 -409 -22 -413 -40 -2 -13 12 -17 85 -23 141 -11 186 -44 203 -151 13 -77&#xA;13 -1823 0 -2035 -10 -168 -24 -228 -67 -272 -26 -27 -38 -31 -126 -43 -38 -5&#xA;-48 -10 -45 -23 3 -16 32 -17 333 -17 182 0 483 -5 670 -9 371 -10 402 -7 424&#xA;40 29 65 72 417 53 436 -19 19 -32 -2 -47 -74 -31 -146 -86 -212 -203 -245&#xA;-56 -15 -104 -18 -287 -18 -246 0 -284 7 -338 58 -60 56 -61 61 -65 621 -1&#xA;280 1 513 5 517 4 4 105 11 223 14 388 12 474 -16 486 -161 7 -85 13 -104 28&#xA;-104 18 0 24 29 31 170 4 63 13 160 21 214 22 156 19 164 -47 97 -22 -24 -54&#xA;-44 -77 -50 -69 -19 -295 -36 -562 -43 l-105 -3 -3 506 c-2 397 1 509 10 517&#xA;17 13 427 36 535 29 146 -9 208 -57 219 -169 8 -81 13 -98 29 -98 24 0 32 35&#xA;40 175 3 72 13 163 21 203 14 67 13 93 -4 91 -4 0 -23 -7 -42 -16z"></path>
<path d="M5907 5198 c-10 -15 -27 -131 -51 -338 -19 -173 -56 -490 -80 -705&#xA;-48 -411 -83 -722 -117 -1020 -35 -317 -50 -376 -103 -410 -15 -10 -63 -23&#xA;-109 -29 -60 -9 -82 -16 -82 -27 0 -12 53 -14 365 -14 318 0 365 2 365 15 0&#xA;11 -15 17 -55 21 -190 20 -208 47 -190 271 24 288 140 1564 144 1573 2 6 22&#xA;-28 43 -75 203 -433 437 -903 613 -1235 311 -585 321 -600 361 -558 9 10 106&#xA;194 214 408 213 419 725 1417 731 1424 2 2 6 2 8 0 4 -4 143 -1355 168 -1638&#xA;11 -122 11 -124 -10 -142 -26 -21 -28 -35 -5 -43 27 -11 350 -25 551 -26 149&#xA;0 182 3 182 14 0 19 -22 26 -88 26 -77 0 -179 25 -224 55 -41 28 -83 92 -105&#xA;163 -8 26 -23 117 -34 202 -18 143 -101 836 -134 1115 -85 713 -106 870 -118&#xA;882 -22 22 -45 5 -81 -61 -60 -109 -375 -725 -696 -1361 -172 -341 -314 -621&#xA;-316 -623 -6 -9 -317 594 -800 1553 -161 319 -302 586 -313 593 -17 12 -21 11&#xA;-34 -10z"></path>
<path d="M18353 5209 c-142 -18 -262 -60 -365 -128 -166 -109 -255 -261 -266&#xA;-456 -15 -281 110 -483 464 -750 311 -234 430 -349 489 -469 71 -145 73 -304&#xA;4 -439 -31 -59 -134 -159 -199 -190 -120 -58 -296 -71 -443 -32 -211 55 -336&#xA;207 -337 408 0 50 -2 57 -19 57 -11 0 -22 -8 -25 -17 -8 -25 -26 -293 -26&#xA;-381 0 -67 2 -76 28 -101 29 -29 147 -71 262 -92 86 -16 368 -16 445 0 263 55&#xA;436 179 536 385 56 114 72 202 67 349 -4 98 -10 136 -31 195 -61 174 -200 333&#xA;-456 521 -57 42 -149 110 -205 151 -127 94 -244 209 -284 279 -82 144 -60 336&#xA;52 456 90 98 217 145 388 145 161 0 285 -44 352 -122 31 -36 57 -103 74 -193&#xA;5 -25 14 -41 24 -43 22 -4 26 32 32 263 l4 181 -147 17 c-152 18 -311 20 -418&#xA;6z"></path>
<path d="M9571 5052 c-8 -16 -33 -205 -157 -1227 -122 -1005 -121 -993 -146&#xA;-1042 -33 -66 -60 -83 -151 -92 -79 -7 -93 -12 -83 -30 10 -15 723 -15 732 0&#xA;10 17 -17 29 -69 29 -70 0 -132 18 -159 47 -21 23 -23 33 -21 126 0 56 11 201&#xA;23 322 42 439 70 734 90 955 12 124 24 243 28 265 l7 39 109 -214 c233 -462&#xA;346 -677 509 -970 232 -417 323 -573 347 -595 37 -34 48 -18 199 270 309 588&#xA;758 1438 779 1475 l26 45 18 -160 c9 -88 47 -448 83 -800 36 -352 68 -667 72&#xA;-699 6 -56 5 -61 -21 -81 -45 -36 -17 -46 161 -55 214 -12 560 -12 568 -1 10&#xA;17 -32 31 -90 31 -31 0 -88 7 -127 16 -64 15 -78 22 -123 68 -77 77 -83 104&#xA;-139 571 -14 116 -35 284 -46 375 -11 91 -31 257 -45 370 -122 1007 -117 976&#xA;-163 951 -11 -6 -60 -87 -110 -183 -109 -211 -178 -342 -292 -558 -48 -91&#xA;-119 -226 -158 -300 -251 -483 -495 -946 -501 -952 -3 -4 -72 116 -153 265&#xA;-80 150 -221 412 -313 582 -92 171 -215 398 -273 505 -57 107 -159 296 -224&#xA;420 -66 124 -125 231 -130 238 -15 18 -46 15 -57 -6z"></path>
<path d="M15550 5048 c-74 -4 -225 -8 -335 -8 -110 0 -242 -3 -293 -6 -78 -5&#xA;-93 -9 -90 -23 3 -13 21 -17 89 -22 106 -7 154 -29 183 -85 21 -38 21 -52 24&#xA;-934 3 -918 -2 -1082 -35 -1179 -24 -71 -51 -91 -139 -99 -54 -6 -69 -11 -72&#xA;-24 -3 -16 25 -17 427 -18 411 0 431 1 431 19 0 16 -12 19 -96 24 -61 4 -110&#xA;13 -133 24 -85 42 -104 163 -99 638 l3 310 234 3 c212 2 236 1 254 -15 10 -10&#xA;89 -106 175 -213 428 -533 550 -664 686 -730 108 -53 172 -61 456 -58 214 3&#xA;235 5 238 21 3 14 -4 17 -50 17 -124 0 -242 34 -354 101 -135 82 -268 217&#xA;-671 687 l-235 272 93 93 c118 116 187 207 244 322 192 389 44 747 -355 854&#xA;-140 38 -308 46 -580 29z m329 -114 c145 -38 263 -137 329 -274 53 -111 66&#xA;-179 66 -330 -1 -296 -112 -485 -319 -546 -111 -33 -418 -18 -505 24 l-35 17&#xA;0 545 0 545 27 13 c66 31 324 35 437 6z"></path>
<path d="M14252 5033 c-50 -21 -375 -32 -924 -33 -433 0 -507 -4 -486 -25 3&#xA;-3 42 -10 88 -15 105 -12 162 -39 187 -88 17 -35 18 -87 21 -957 3 -962 -1&#xA;-1072 -38 -1146 -26 -51 -55 -68 -131 -79 -60 -9 -90 -22 -72 -33 5 -3 314 -8&#xA;687 -12 494 -4 686 -3 706 5 15 6 32 22 38 35 24 52 62 332 50 365 -11 30 -30&#xA;20 -40 -21 -5 -19 -16 -56 -24 -84 -47 -151 -164 -192 -522 -182 -209 5 -264&#xA;17 -306 68 -14 16 -31 46 -37 67 -18 53 -25 917 -9 938 14 16 218 19 446 5&#xA;203 -12 259 -50 271 -181 4 -40 10 -60 19 -60 21 0 24 13 35 161 5 78 16 173&#xA;25 212 18 85 8 104 -33 65 -57 -52 -86 -60 -267 -69 -94 -4 -244 -8 -332 -8&#xA;-159 -1 -162 -1 -168 22 -3 12 -6 214 -6 448 0 337 3 429 13 443 13 17 32 18&#xA;298 14 238 -4 292 -8 334 -22 86 -31 113 -65 129 -165 6 -36 16 -66 23 -68 21&#xA;-7 32 33 38 133 4 55 13 136 22 182 9 47 12 87 7 91 -5 5 -24 2 -42 -6z"></path>
<path d="M690 2235 l0 -25 11480 0 11480 0 0 25 0 25 -11480 0 -11480 0 0 -25z"></path>
<path d="M896 1860 c-5 -21 -106 -917 -106 -942 0 -17 -41 -48 -64 -48 -14 0&#xA;-27 -4 -30 -9 -3 -4 57 -8 134 -8 78 -1 137 3 134 8 -3 5 -18 9 -33 9 -15 0&#xA;-36 9 -46 19 -16 19 -16 30 -1 218 23 274 44 484 49 489 2 2 19 -28 36 -68 91&#xA;-202 326 -668 338 -668 13 0 57 87 258 518 60 127 112 232 115 232 4 0 12 -62&#xA;19 -137 7 -76 21 -232 32 -348 11 -115 18 -222 15 -237 -5 -28 -5 -28 43 -28&#xA;26 0 90 -3 141 -7 63 -4 91 -3 87 4 -4 6 -27 13 -52 16 -55 6 -91 36 -104 86&#xA;-5 20 -28 209 -51 421 -51 475 -53 491 -65 492 -5 0 -92 -174 -192 -388 -100&#xA;-214 -191 -407 -201 -429 l-20 -40 -40 85 c-80 170 -363 744 -376 764 -14 21&#xA;-14 21 -20 -4z"></path>
<path d="M2726 1871 c-4 -6 -83 -219 -176 -473 -153 -417 -173 -466 -205 -495&#xA;-25 -24 -44 -33 -70 -33 -19 0 -35 -4 -35 -9 0 -6 62 -9 145 -8 80 1 145 5&#xA;145 9 0 4 -10 8 -23 8 -28 0 -47 18 -47 44 0 12 23 90 51 174 l51 152 156 -2&#xA;156 -3 64 -169 c50 -132 62 -174 54 -187 -9 -14 -5 -17 26 -23 61 -10 232 -7&#xA;232 4 0 6 -12 10 -27 10 -53 0 -89 34 -132 122 -22 46 -108 261 -191 478 -83&#xA;217 -155 399 -159 403 -5 5 -12 4 -15 -2z m54 -371 c32 -91 60 -175 64 -187&#xA;l7 -23 -129 0 c-71 0 -131 3 -134 6 -9 8 115 375 126 371 5 -2 35 -77 66 -167z"></path>
<path d="M13362 1868 c-171 -29 -252 -196 -172 -355 30 -60 53 -84 229 -241&#xA;45 -41 91 -92 103 -115 62 -123 -12 -264 -145 -275 -120 -10 -210 50 -223 147&#xA;-10 77 -24 43 -24 -60 0 -58 4 -90 13 -96 51 -41 226 -51 316 -18 134 49 208&#xA;198 167 338 -20 70 -61 124 -156 204 -173 148 -193 168 -212 211 -36 81 -1&#xA;175 79 208 46 20 130 17 180 -5 42 -20 73 -61 73 -100 0 -11 5 -23 10 -26 6&#xA;-4 10 27 10 84 0 87 -1 91 -22 92 -13 0 -60 4 -104 7 -45 4 -100 4 -122 0z"></path>
<path d="M22687 1838 c-3 -24 -6 -238 -7 -477 -1 -239 -5 -444 -10 -456 -9&#xA;-25 -29 -35 -66 -35 -13 0 -24 -4 -24 -9 0 -4 70 -8 155 -9 90 0 153 4 149 9&#xA;-3 5 -21 9 -40 9 -45 0 -71 27 -78 82 -7 53 -26 701 -20 707 2 2 32 -27 66&#xA;-65 392 -430 710 -760 726 -750 9 5 12 125 12 465 0 304 4 468 11 489 8 25 18&#xA;33 45 38 68 13 31 20 -111 20 -80 1 -145 -3 -145 -8 0 -4 16 -8 35 -8 24 0 44&#xA;-8 59 -24 30 -29 33 -67 41 -481 l6 -310 -24 25 c-13 14 -73 79 -133 145 -146&#xA;160 -635 685 -639 685 -1 0 -5 -19 -8 -42z"></path>
<path d="M5720 1423 c0 -246 -5 -466 -10 -488 -10 -43 -32 -65 -66 -65 -13 0&#xA;-25 -4 -28 -9 -3 -4 64 -8 149 -8 85 0 155 3 155 8 0 5 -16 9 -35 9 -24 0 -44&#xA;8 -59 23 -30 30 -33 75 -41 477 l-6 295 43 -45 c24 -25 106 -115 183 -200 154&#xA;-171 554 -580 566 -580 4 0 9 216 11 481 l3 481 24 19 c13 10 34 19 47 19 13&#xA;0 24 4 24 8 0 10 -286 10 -296 0 -4 -5 7 -8 24 -8 50 0 79 -16 90 -50 7 -19&#xA;14 -177 18 -398 l7 -366 -59 64 c-33 36 -81 88 -105 115 -227 250 -615 661&#xA;-625 663 -12 3 -14 -72 -14 -445z"></path>
<path d="M7655 1858 c-24 -6 -135 -8 -272 -5 -133 3 -233 1 -233 -4 0 -5 14&#xA;-9 30 -9 19 0 40 -9 55 -25 l25 -24 0 -424 c0 -463 -2 -484 -51 -494 -70 -14&#xA;-21 -18 231 -21 308 -3 279 -14 286 108 l5 75 -18 -50 c-25 -70 -58 -85 -185&#xA;-85 -88 0 -99 2 -125 24 l-28 24 -3 207 -3 207 121 -4 c114 -3 123 -5 141 -27&#xA;10 -13 19 -35 19 -49 0 -15 4 -22 9 -16 5 5 11 49 15 98 l6 89 -21 -19 c-18&#xA;-16 -40 -19 -155 -22 l-134 -4 2 199 3 198 110 -1 c139 -1 166 -12 181 -74 7&#xA;-26 14 -39 17 -30 6 17 20 171 15 169 -2 -1 -21 -5 -43 -11z"></path>
<path d="M9206 1854 c-230 -56 -378 -272 -363 -529 15 -240 156 -410 392 -471&#xA;100 -26 337 -24 415 2 53 18 55 20 67 69 17 69 28 172 16 160 -5 -5 -15 -28&#xA;-22 -50 -32 -96 -93 -134 -224 -142 -154 -10 -290 41 -389 145 -106 111 -143&#xA;221 -136 399 4 95 8 117 35 174 16 36 45 82 62 102 79 90 263 136 419 105 149&#xA;-30 215 -82 228 -180 10 -78 24 -55 24 40 0 48 3 103 6 123 l6 35 -114 17&#xA;c-136 20 -340 21 -422 1z"></path>
<path d="M10521 1854 c-154 -41 -297 -182 -342 -337 -49 -167 -17 -365 80&#xA;-493 162 -215 508 -256 734 -86 193 145 262 447 155 672 -58 121 -186 219&#xA;-326 249 -73 15 -236 13 -301 -5z m301 -56 c164 -76 250 -239 249 -468 -2&#xA;-208 -74 -347 -214 -414 -145 -68 -316 -34 -436 87 -104 105 -146 230 -138&#xA;417 6 174 54 275 161 348 71 48 127 62 231 59 73 -2 101 -7 147 -29z"></path>
<path d="M11708 1391 c-3 -455 -4 -480 -22 -500 -11 -12 -31 -21 -47 -21 -15&#xA;0 -30 -4 -33 -9 -3 -4 64 -8 149 -8 85 0 155 3 155 8 0 5 -15 9 -34 9 -19 0&#xA;-44 8 -56 18 -29 23 -36 99 -46 491 l-7 294 44 -49 c293 -326 732 -784 751&#xA;-784 4 0 8 201 8 448 0 246 5 465 10 487 10 44 32 65 67 65 13 0 23 4 23 8 0&#xA;9 -285 10 -294 1 -4 -4 14 -9 40 -12 78 -8 78 -7 86 -265 11 -384 13 -532 7&#xA;-532 -4 0 -105 107 -225 238 -120 130 -248 269 -285 307 -36 39 -111 118 -165&#xA;178 -54 59 -104 107 -111 107 -9 0 -13 -112 -15 -479z"></path>
<path d="M14040 1833 c-6 -21 -13 -60 -16 -88 l-5 -50 21 38 c31 57 65 67 220&#xA;67 l131 0 -3 -444 c-3 -420 -4 -445 -22 -465 -11 -12 -30 -21 -43 -21 -12 0&#xA;-23 -4 -23 -8 0 -5 74 -9 165 -9 93 -1 165 3 165 8 0 5 -17 9 -38 9 -50 0 -71&#xA;17 -82 65 -5 22 -9 226 -10 454 l0 413 134 -4 c152 -4 181 -15 202 -78 l11&#xA;-33 6 33 c4 18 7 56 7 84 l0 51 -347 0 c-192 0 -374 3 -405 8 l-57 7 -11 -37z"></path>
<path d="M18190 1854 c-189 -52 -315 -188 -356 -384 -38 -182 30 -399 157&#xA;-502 121 -97 233 -132 429 -132 157 0 244 15 265 47 17 27 38 143 33 183 -4&#xA;28 -4 27 -16 -12 -31 -104 -99 -152 -229 -161 -156 -10 -283 35 -387 139 -108&#xA;108 -154 240 -143 406 8 112 28 177 74 240 78 104 170 144 338 145 172 2 269&#xA;-36 313 -123 12 -24 22 -59 22 -77 0 -18 4 -33 8 -33 8 0 26 239 20 246 -12&#xA;11 -182 27 -313 30 -121 3 -173 0 -215 -12z"></path>
<path d="M19132 1831 c-7 -21 -15 -60 -18 -87 l-5 -49 22 37 c35 58 67 68 218&#xA;68 l131 0 0 -423 c0 -246 -4 -436 -10 -456 -11 -39 -24 -51 -57 -51 -13 0 -23&#xA;-4 -23 -8 0 -5 74 -9 165 -10 93 0 165 4 165 9 0 5 -17 9 -38 9 -57 0 -74 18&#xA;-83 86 -4 33 -8 236 -8 452 l-1 392 113 0 c164 0 227 -24 227 -87 0 -19 3 -24&#xA;10 -17 6 6 10 44 8 90 l-3 79 -30 -5 c-47 -8 -654 -6 -716 2 l-56 8 -11 -39z"></path>
<path d="M21535 1865 c-5 -2 -34 -11 -64 -20 -199 -61 -341 -268 -341 -495 0&#xA;-232 133 -427 334 -489 265 -82 531 21 645 250 52 102 64 169 59 299 -7 139&#xA;-37 217 -119 305 -103 110 -222 156 -400 154 -57 0 -108 -2 -114 -4z m267 -68&#xA;c152 -74 248 -253 248 -462 0 -204 -82 -355 -229 -423 -47 -23 -70 -27 -146&#xA;-27 -80 0 -97 4 -155 31 -83 39 -133 83 -182 158 -96 148 -114 380 -43 541 42&#xA;97 140 181 239 206 17 5 72 7 122 6 75 -2 100 -7 146 -30z"></path>
<path d="M3580 1850 c0 -4 18 -10 41 -14 70 -11 71 -15 67 -490 -3 -448 -6&#xA;-467 -58 -474 -14 -2 -29 -7 -33 -11 -4 -4 67 -8 158 -8 93 0 162 3 159 8 -3&#xA;5 -21 9 -40 9 -53 0 -71 26 -79 112 -3 40 -5 123 -3 183 l3 110 85 3 c47 1 90&#xA;-1 96 -5 6 -5 63 -79 128 -165 138 -185 187 -232 257 -247 64 -14 209 -14 209&#xA;-1 0 6 -16 10 -35 10 -52 0 -120 36 -177 94 -92 93 -282 338 -272 351 5 7 30&#xA;39 57 71 143 178 107 393 -75 449 -41 13 -102 17 -270 19 -120 1 -218 -1 -218&#xA;-4z m387 -45 c135 -40 200 -235 130 -388 -38 -84 -68 -99 -183 -95 -58 3 -98&#xA;9 -108 17 -14 12 -16 41 -14 239 l3 226 25 7 c42 12 94 10 147 -6z"></path>
<path d="M4840 1849 c0 -4 16 -10 35 -13 19 -4 39 -15 45 -26 15 -28 12 -855&#xA;-3 -900 -10 -29 -17 -36 -44 -38 -18 -2 -33 -7 -33 -11 0 -4 74 -8 165 -9 93&#xA;0 165 4 165 9 0 5 -18 9 -40 9 -63 0 -77 21 -85 131 -4 52 -5 253 -3 447 l3&#xA;354 24 19 c13 10 35 19 49 19 14 0 22 3 18 7 -9 9 -296 11 -296 2z"></path>
<path d="M15270 1848 c0 -4 14 -8 30 -8 19 0 40 -9 55 -25 l25 -24 0 -413 c0&#xA;-227 -5 -431 -10 -452 -9 -42 -23 -56 -57 -56 -13 0 -23 -4 -23 -8 0 -5 72 -9&#xA;160 -9 88 -1 160 3 160 7 0 5 -19 10 -42 12 -71 5 -77 24 -78 218 -1 91 -1&#xA;171 0 178 0 9 25 12 89 12 l90 0 102 -137 c205 -278 214 -284 387 -291 79 -3&#xA;112 -1 112 7 0 6 -16 11 -37 11 -101 0 -182 74 -417 377 l-49 62 51 56 c170&#xA;186 137 412 -71 477 -39 12 -477 18 -477 6z m427 -59 c144 -70 166 -359 33&#xA;-447 -32 -22 -44 -23 -127 -20 -51 2 -98 9 -103 14 -13 13 -15 453 -3 465 27&#xA;25 136 19 200 -12z"></path>
<path d="M16440 1848 c0 -4 13 -8 29 -8 16 0 39 -9 52 -19 l24 -19 6 -339 c5&#xA;-317 7 -342 28 -400 60 -165 237 -256 433 -224 131 22 225 89 274 196 39 84&#xA;44 135 51 459 5 283 7 310 24 327 11 11 30 19 44 19 14 0 25 3 25 8 0 4 -65 7&#xA;-145 8 -80 0 -145 -3 -145 -8 0 -4 13 -8 29 -8 15 0 40 -10 55 -21 l27 -21 -3&#xA;-342 c-4 -396 -6 -405 -93 -493 -41 -40 -65 -55 -110 -69 -122 -35 -248 5&#xA;-313 101 -63 92 -67 123 -67 483 l0 324 24 19 c13 10 34 19 47 19 13 0 24 3&#xA;24 8 0 4 -72 7 -160 7 -88 1 -160 -3 -160 -7z"></path>
<path d="M20380 1848 c0 -4 9 -8 20 -8 12 0 32 -11 45 -25 l25 -24 0 -418 c0&#xA;-244 -4 -432 -10 -452 -11 -39 -24 -51 -57 -51 -13 0 -23 -4 -23 -8 0 -5 74&#xA;-9 165 -9 93 -1 165 3 165 8 0 5 -18 9 -40 9 -61 0 -77 22 -85 122 -3 45 -5&#xA;247 -3 446 l3 364 24 19 c13 10 32 19 42 19 10 0 19 3 19 8 0 4 -65 7 -145 7&#xA;-80 1 -145 -3 -145 -7z"></path>
</g>
</svg>